<?xml version="1.0" standalone="no"?>
<!DOCTYPE svg PUBLIC "-//W3C//DTD SVG 20010904//EN"
 "http://www.w3.org/TR/2001/REC-SVG-20010904/DTD/svg10.dtd">
<svg version="1.0" xmlns="http://www.w3.org/2000/svg"
 width="700.000000pt" height="700.000000pt" viewBox="0 0 700.000000 700.000000"
 preserveAspectRatio="xMidYMid meet">
<metadata>
Created by potrace 1.11, written by Peter Selinger 2001-2013
</metadata>
<g transform="translate(0.000000,700.000000) scale(0.100000,-0.100000)"
fill="#000000" stroke="none">
<path d="M318 6866 c-31 -13 -70 -34 -86 -47 -46 -37 -100 -124 -112 -182 -8
-38 -10 -643 -8 -2182 l3 -2130 26 -55 c45 -93 132 -164 226 -185 18 -3 410
-7 872 -7 l838 0 1 -182 c0 -105 5 -202 12 -227 25 -95 94 -176 187 -220 l48
-24 2144 -1 2144 -2 58 21 c77 28 149 91 185 164 l29 58 3 316 3 316 -618 1
c-340 0 -639 1 -666 1 -47 1 -47 1 -41 28 9 34 12 63 13 133 l1 55 646 0 c355
0 650 3 655 6 6 3 8 435 7 1080 l-3 1074 -26 56 c-45 95 -138 167 -238 184
-24 4 -268 7 -543 7 l-498 1 0 191 c0 105 -1 493 -3 861 -2 667 -2 670 -24
717 -31 67 -94 131 -161 164 l-57 29 -2480 2 -2480 3 -57 -24z m5006 -229 l35
-33 -2 -185 -2 -184 -2512 0 -2513 0 0 183 0 184 34 34 34 34 2445 0 2446 0
35 -33z m31 -1167 l0 -545 -609 0 -610 0 -113 144 c-63 80 -122 151 -133 158
-61 43 -158 -4 -164 -79 -4 -42 9 -66 78 -155 l55 -70 -319 -1 -318 0 13 42
c7 22 22 70 34 106 17 53 19 72 10 103 -19 72 -110 100 -167 52 -24 -20 -39
-52 -73 -153 -23 -70 -46 -132 -51 -138 -6 -8 -101 -12 -321 -12 -337 0 -365
-4 -447 -58 -63 -42 -119 -129 -135 -212 -5 -25 -10 -1923 -6 -2112 l1 -25
1637 0 1638 0 0 -78 c0 -76 -1 -80 -33 -108 l-32 -29 -1618 -1 c-889 0 -1989
-1 -2444 -1 -792 0 -827 0 -851 18 -14 11 -30 29 -36 42 -8 16 -11 572 -11
1840 l0 1817 2513 0 2512 0 0 -545z m-1809 -1108 c43 -18 69 -68 60 -115 -7
-38 -54 -86 -84 -88 -123 -6 -552 -2 -552 6 0 8 44 146 64 200 6 16 473 13
512 -3z m668 -5 c54 -36 66 -101 27 -156 -28 -39 -47 -44 -195 -45 -96 -2
-128 2 -157 15 -68 33 -79 120 -22 177 22 23 61 28 194 27 101 -1 132 -5 153
-18z m988 -1 c48 -31 59 -111 23 -159 -26 -36 -73 -42 -300 -41 l-219 0 -10
31 c-6 18 -24 48 -41 69 -65 80 -85 112 -74 116 6 2 142 3 302 3 263 -1 295
-3 319 -19z m976 6 c52 -29 71 -107 37 -158 -29 -45 -58 -49 -353 -49 l-277 1
-5 59 c-3 33 -4 83 -2 110 l4 50 286 0 c207 -1 293 -4 310 -13z m-2932 -673
c18 -18 28 -41 31 -70 4 -38 0 -49 -25 -79 l-30 -35 -211 0 c-200 0 -212 1
-231 21 l-21 20 26 75 c15 41 28 80 31 87 3 11 45 13 204 10 l200 -3 26 -26z
m857 18 c-4 -7 -42 -57 -83 -110 l-74 -97 -179 0 c-139 0 -184 3 -207 15 -32
17 -60 61 -60 95 0 36 37 91 70 103 8 3 133 6 278 6 215 1 262 -1 255 -12z
m789 -26 c27 -30 30 -39 25 -79 -3 -30 -13 -53 -31 -71 l-26 -26 -321 -3 -321
-3 84 111 83 110 238 -2 239 -3 30 -34z m468 -70 l0 -111 -69 0 c-54 0 -75 5
-102 23 -64 43 -62 137 3 177 18 11 53 18 98 19 l70 2 0 -110z m835 79 c56
-56 46 -143 -20 -174 -42 -20 -276 -23 -315 -3 -42 21 -69 71 -60 111 10 45
16 54 54 77 28 18 46 20 173 17 137 -3 144 -4 168 -28z m-2310 -644 c60 -39
67 -119 16 -170 l-31 -31 -518 -1 c-394 -1 -525 2 -549 12 -90 35 -87 167 5
198 21 7 202 10 542 9 449 -1 514 -3 535 -17z m652 1 c83 -43 69 -171 -21
-195 -17 -5 -88 -8 -158 -7 -112 1 -131 3 -155 21 -81 60 -43 187 57 196 94 8
248 -1 277 -15z m806 14 c16 -1 17 -11 15 -108 l-3 -108 -235 0 -235 0 -33 30
c-66 60 -41 159 45 180 31 8 291 11 446 6z m834 -12 c75 -40 72 -154 -5 -192
-29 -15 -267 -17 -309 -3 -32 11 -67 64 -65 99 5 60 41 98 102 107 64 9 253 2
277 -11z"/>
<path d="M1823 5245 c-18 -8 -58 -49 -99 -101 -38 -49 -75 -96 -81 -104 -7 -8
-143 -184 -304 -390 -160 -206 -299 -385 -309 -397 -65 -76 -58 -128 32 -235
13 -15 33 -40 44 -55 12 -15 50 -65 85 -110 35 -44 131 -168 214 -275 82 -106
152 -195 155 -198 3 -3 32 -41 65 -85 33 -44 62 -82 65 -85 3 -3 25 -30 49
-60 48 -62 73 -79 114 -80 89 -1 139 93 90 169 -12 19 -142 188 -259 336 -13
17 -75 98 -139 180 -64 83 -122 157 -128 165 -7 8 -51 65 -98 125 l-86 111 26
34 c40 52 530 683 544 700 50 62 146 189 155 207 22 41 15 89 -19 122 -17 17
-36 31 -42 32 -7 0 -19 2 -28 4 -8 1 -29 -3 -46 -10z"/>
<path d="M3911 1000 c-29 -113 -53 -212 -55 -220 -47 -194 -110 -437 -115
-442 -3 -4 -40 -8 -81 -9 -89 -2 -125 -18 -147 -63 -23 -49 -11 -99 31 -131
l33 -25 902 0 c992 0 943 -3 976 61 9 16 14 43 12 58 -12 75 -55 101 -167 101
l-78 0 -7 38 c-10 48 -9 43 -34 142 -12 47 -24 96 -27 110 -3 14 -9 40 -15 58
-6 18 -12 39 -13 45 -1 7 -28 118 -60 247 l-59 235 -523 0 -522 0 -51 -205z"/>
</g>
</svg>
